# xmcd CD database file
# Copyright (C) 1996 Ti Kan
#
# Track frame offsets:
# 	150
# 	24145
# 	46942
# 	69742
# 	97770
# 	114675
# 	147287
# 	168492
# 	184975
# 	203002
# 	220780
# 	239482
# 	258550
# 	271865
#
# Disc length: 4066 seconds
#
# Revision: 1
# Processed by: cddbd v1.4b41PL1 Copyright (c) Steve Scherf et al.
# Submitted via: DiscPlay 3.4.1
#
DISCID=c60fe00e
DTITLE=Too Slim and The Taildraggers - Swamp Opera
DYEAR=1900
DGENRE=
TTITLE0=One More Gallon Of Gasoline
TTITLE1=Blue Guitar
TTITLE2=Swamp Opera
TTITLE3=Chicken Shake
TTITLE4=Doghouse
TTITLE5=She's Not Comin' Back
TTITLE6=I Don't Care
TTITLE7=Drinkin' Rye
TTITLE8=Snakehead Soup
TTITLE9=Big Legs
TTITLE10=Carryin' On
TTITLE11=My Baby Needs A New Pair Of Shoes
TTITLE12=Girl Trouble
TTITLE13=Hell's Half Acre
EXTD=
EXTT0=
EXTT1=
EXTT2=
EXTT3=
EXTT4=
EXTT5=
EXTT6=
EXTT7=
EXTT8=
EXTT9=
EXTT10=
EXTT11=
EXTT12=
EXTT13=
PLAYORDER=
